<?xml version="1.0" encoding="UTF-8"?><svg id="Layer_2" xmlns="http://www.w3.org/2000/svg" viewBox="0 0 229.44 56"><defs><style>.cls-1{fill:#131d33;}.cls-2{fill:#82cc04;}</style></defs><g id="Layer_1-2"><g><path id="Path_585" class="cls-1" d="M75.76,39.91c0,.39,.31,.7,.7,.7h4.37c.38-.01,.69-.32,.7-.7v-11.72l8.23-12.23c.21-.31,.14-.73-.17-.95-.12-.08-.27-.13-.41-.12h-4.78c-.24,0-.46,.12-.59,.33l-5.11,7.53-5.11-7.53c-.13-.2-.35-.32-.59-.33h-4.78c-.38-.02-.69,.28-.71,.65,0,.15,.04,.29,.12,.41l8.12,12.27v11.68Zm12.23,.7h4.04c.58,.02,1.12-.34,1.32-.88l1.32-2.94h9.99l1.32,2.9c.33,.7,.62,.92,1.29,.92h4.08c.36,.03,.67-.23,.7-.59,.01-.13-.02-.25-.08-.36l-11.5-24.72c-.12-.23-.36-.39-.62-.4h-.37c-.26,.01-.5,.17-.62,.4l-11.5,24.72c-.17,.31-.05,.71,.26,.88,.11,.06,.24,.09,.37,.08h0Zm8.89-8.82l2.76-6.06h.04l2.8,6.06h-5.59Zm24.21,8.78c.11,.24,.36,.4,.62,.4h.37c.27,0,.51-.16,.62-.4l11.53-24.72c.17-.31,.05-.71-.26-.88-.11-.06-.24-.09-.36-.08h-4.89c-.27,0-.51,.16-.62,.4l-6.06,13.41h-.22l-6.06-13.41c-.12-.24-.36-.39-.62-.4h-4.89c-.36-.03-.67,.23-.7,.59-.01,.13,.02,.25,.08,.36l11.46,24.72Zm14.07-12.78c-.04,7.24,5.79,13.14,13.03,13.18,.05,0,.1,0,.15,0,7.26,.05,13.18-5.8,13.22-13.05,0-.04,0-.09,0-.13,.03-7.29-5.85-13.23-13.14-13.26-.03,0-.05,0-.08,0-7.27-.01-13.18,5.88-13.19,13.15,0,.04,0,.07,0,.11h0Zm5.88,0c0-4.05,3.26-7.34,7.31-7.38,4.06,.03,7.34,3.32,7.35,7.38-.03,4.04-3.31,7.3-7.35,7.31-4.03-.02-7.29-3.28-7.31-7.31h0Zm24.98,12.12c0,.39,.31,.7,.7,.7h4.37c.38-.01,.69-.32,.7-.7v-9.37h2.53l4.89,9.74c.12,.21,.35,.33,.59,.33h4.89c.39,.02,.71-.28,.73-.67,0-.14-.03-.28-.1-.4l-5.03-9.33c3.2-1.29,5.44-4,5.44-7.38-.03-4.4-3.61-7.94-8.01-7.93h-10.99c-.39,0-.7,.31-.7,.7v24.32Zm5.77-14.03v-5.73h5.44c1.54,0,2.79,1.26,2.8,2.8,0,1.57-1.23,2.86-2.8,2.94h-5.44Zm16.57,8.19h8.41c.37,.02,.68-.27,.7-.63,0,0,0-.02,0-.03v-3.34c.01-.37-.28-.69-.65-.7-.02,0-.03,0-.05,0h-8.41c-.37-.01-.69,.28-.7,.65,0,.02,0,.03,0,.05v3.34c0,.37,.3,.67,.67,.67,.01,0,.02,0,.03,0h0Zm11.9,5.73c-.08,.36,.16,.72,.52,.8,.06,.01,.12,.02,.18,.01h4.34c.34,0,.64-.25,.7-.59l1.62-11.35h.07l6.2,11.9c.13,.23,.36,.38,.62,.4h.66c.26-.03,.49-.18,.62-.4l6.18-11.9h.07l1.65,11.35c.07,.33,.36,.57,.7,.59h4.33c.37,.02,.69-.26,.71-.63,0-.06,0-.12-.01-.18l-4.15-24.69c-.05-.33-.33-.57-.66-.59h-.59c-.25,.02-.49,.15-.62,.37l-8.53,15.87h-.07l-8.52-15.87c-.14-.21-.37-.35-.62-.37h-.59c-.33,.01-.61,.26-.66,.59l-4.15,24.68Z"/><path id="Path_586" class="cls-1" d="M3.7,54.45L.01,22.84c-.09-.77,.34-1.5,1.05-1.81L30.28,8.41c.89-.38,1.92,.03,2.3,.92,.22,.51,.19,1.09-.09,1.57L6.96,55.12c-.3,.55-.88,.88-1.5,.88-.9,.01-1.66-.66-1.75-1.55Z"/><path id="Path_587" class="cls-2" d="M18.68,45.1L44.21,.88c.48-.84,1.56-1.13,2.4-.64,.48,.28,.8,.77,.87,1.32l3.68,31.61c.09,.77-.33,1.51-1.05,1.81l-29.21,12.61c-.22,.1-.46,.15-.71,.15-.97,0-1.75-.8-1.74-1.77,0-.3,.08-.6,.23-.86Z"/></g></g></svg>