{
  "accessors": [
    {
      "bufferView": 2,
      "componentType": 5126,
      "count": 21184,
      "max": [
        1.0,
        0.9333332777023315,
        0.21579405665397644
      ],
      "min": [
        -1.0,
        -1.1333333253860474,
        -0.3333333134651184
      ],
      "type": "VEC3"
    },
    {
      "bufferView": 2,
      "byteOffset": 254208,
      "componentType": 5126,
      "count": 21184,
      "max": [
        1.0,
        1.0,
        1.0
      ],
      "min": [
        -1.0,
        -1.0,
        -1.0
      ],
      "type": "VEC3"
    },
    {
      "bufferView": 1,
      "componentType": 5126,
      "count": 21184,
      "max": [
        0.9900000095367432,
        0.9631471633911133
      ],
      "min": [
        0.125,
        0.0
      ],
      "type": "VEC2"
    },
    {
      "bufferView": 0,
      "componentType": 5125,
      "count": 40806,
      "type": "SCALAR"
    },
    {
      "bufferView": 2,
      "byteOffset": 508416,
      "componentType": 5126,
      "count": 4022,
      "max": [
        1.2464241981506348,
        -0.0006629442796111107,
        1.6341958045959473
      ],
      "min": [
        -1.1804440021514893,
        -1.015467882156372,
        -1.715517520904541
      ],
      "type": "VEC3"
    },
    {
      "bufferView": 2,
      "byteOffset": 556680,
      "componentType": 5126,
      "count": 4022,
      "max": [
        1.0,
        1.0,
        1.0
      ],
      "min": [
        -1.0,
        -1.0,
        -1.0
      ],
      "type": "VEC3"
    },
    {
      "bufferView": 1,
      "byteOffset": 169472,
      "componentType": 5126,
      "count": 4022,
      "max": [
        0.9900000095367432,
        1.0
      ],
      "min": [
        0.027778252959251404,
        0.0
      ],
      "type": "VEC2"
    },
    {
      "bufferView": 0,
      "byteOffset": 163224,
      "componentType": 5125,
      "count": 9504,
      "type": "SCALAR"
    },
    {
      "bufferView": 2,
      "byteOffset": 604944,
      "componentType": 5126,
      "count": 4022,
      "max": [
        1.2464241981506348,
        -0.0006629442796111107,
        1.6341958045959473
      ],
      "min": [
        -1.1804440021514893,
        -1.015467882156372,
        -1.715517520904541
      ],
      "type": "VEC3"
    },
    {
      "bufferView": 2,
      "byteOffset": 653208,
      "componentType": 5126,
      "count": 4022,
      "max": [
        1.0,
        1.0,
        1.0
      ],
      "min": [
        -1.0,
        -1.0,
        -1.0
      ],
      "type": "VEC3"
    },
    {
      "bufferView": 1,
      "byteOffset": 201648,
      "componentType": 5126,
      "count": 4022,
      "max": [
        0.9900000095367432,
        1.0
      ],
      "min": [
        0.027778252959251404,
        0.0
      ],
      "type": "VEC2"
    },
    {
      "bufferView": 0,
      "byteOffset": 201240,
      "componentType": 5125,
      "count": 9504,
      "type": "SCALAR"
    },
    {
      "bufferView": 2,
      "byteOffset": 701472,
      "componentType": 5126,
      "count": 17982,
      "max": [
        2.250443458557129,
        0.07065273821353912,
        1.3627617359161377
      ],
      "min": [
        -1.8066359758377075,
        -0.39453181624412537,
        0.7467023134231567
      ],
      "type": "VEC3"
    },
    {
      "bufferView": 2,
      "byteOffset": 917256,
      "componentType": 5126,
      "count": 17982,
      "max": [
        1.0,
        1.0,
        1.0
      ],
      "min": [
        -1.0,
        -1.0,
        -1.0
      ],
      "type": "VEC3"
    },
    {
      "bufferView": 1,
      "byteOffset": 233824,
      "componentType": 5126,
      "count": 17982,
      "max": [
        0.6290903687477112,
        0.8566241264343262
      ],
      "min": [
        0.22943457961082458,
        0.4634304642677307
      ],
      "type": "VEC2"
    },
    {
      "bufferView": 0,
      "byteOffset": 239256,
      "componentType": 5125,
      "count": 27504,
      "type": "SCALAR"
    }
  ],
  "asset": {
    "extras": {
      "author": "MaxTht (https://sketchfab.com/thetiot.maxime)",
      "license": "CC-BY-4.0 (http://creativecommons.org/licenses/by/4.0/)",
      "source": "https://sketchfab.com/3d-models/pioneer-cdj-3000-pioneer-djm-a9-de807aa8a5e146bb866b95b58d0c531b",
      "title": "Pioneer CDJ 3000 Pioneer DJM A9"
    },
    "generator": "Sketchfab-15.49.0",
    "version": "2.0"
  },
  "bufferViews": [
    {
      "buffer": 0,
      "byteLength": 349272,
      "name": "floatBufferViews",
      "target": 34963
    },
    {
      "buffer": 0,
      "byteLength": 377680,
      "byteOffset": 349272,
      "byteStride": 8,
      "name": "floatBufferViews",
      "target": 34962
    },
    {
      "buffer": 0,
      "byteLength": 1133040,
      "byteOffset": 726952,
      "byteStride": 12,
      "name": "floatBufferViews",
      "target": 34962
    }
  ],
  "buffers": [
    {
      "byteLength": 1859992,
      "uri": "scene.bin"
    }
  ],
  "images": [
    {
      "uri": "textures/Pioneer_DJM_A9_Texture_baseColor.png"
    },
    {
      "uri": "textures/Textures_baseColor.png"
    }
  ],
  "materials": [
    {
      "doubleSided": true,
      "name": "Pioneer_DJM_A9_Texture",
      "pbrMetallicRoughness": {
        "baseColorTexture": {
          "index": 0
        },
        "metallicFactor": 0.7,
        "roughnessFactor": 0.8211145618000169
      }
    },
    {
      "doubleSided": true,
      "name": "Textures",
      "pbrMetallicRoughness": {
        "baseColorTexture": {
          "index": 1
        },
        "metallicFactor": 0.7,
        "roughnessFactor": 0.7470177871865296
      }
    }
  ],
  "meshes": [
    {
      "name": "Pioneer DJM A9_Pioneer DJM A9 Texture_0",
      "primitives": [
        {
          "attributes": {
            "NORMAL": 1,
            "POSITION": 0,
            "TEXCOORD_0": 2
          },
          "indices": 3,
          "material": 0,
          "mode": 4
        }
      ]
    },
    {
      "name": "Pioneer CDJ 3000 NXS 2_Textures_0",
      "primitives": [
        {
          "attributes": {
            "NORMAL": 5,
            "POSITION": 4,
            "TEXCOORD_0": 6
          },
          "indices": 7,
          "material": 1,
          "mode": 4
        }
      ]
    },
    {
      "name": "Pioneer CDJ 3000 NXS 1_Textures_0",
      "primitives": [
        {
          "attributes": {
            "NORMAL": 9,
            "POSITION": 8,
            "TEXCOORD_0": 10
          },
          "indices": 11,
          "material": 1,
          "mode": 4
        }
      ]
    },
    {
      "name": "Cables_Pioneer DJM A9 Texture_0",
      "primitives": [
        {
          "attributes": {
            "NORMAL": 13,
            "POSITION": 12,
            "TEXCOORD_0": 14
          },
          "indices": 15,
          "material": 0,
          "mode": 4
        }
      ]
    }
  ],
  "nodes": [
    {
      "children": [
        1
      ],
      "matrix": [
        1.0,
        0.0,
        0.0,
        0.0,
        0.0,
        2.220446049250313e-16,
        -1.0,
        0.0,
        0.0,
        1.0,
        2.220446049250313e-16,
        0.0,
        0.0,
        0.0,
        0.0,
        1.0
      ],
      "name": "Sketchfab_model"
    },
    {
      "children": [
        2
      ],
      "matrix": [
        0.009999999776482582,
        0.0,
        0.0,
        0.0,
        0.0,
        0.0,
        0.009999999776482582,
        0.0,
        0.0,
        -0.009999999776482582,
        0.0,
        0.0,
        0.0,
        0.0,
        0.0,
        1.0
      ],
      "name": "5feb87d3cf77481dbe3db6d53c9ebae0.fbx"
    },
    {
      "children": [
        3,
        5,
        7,
        9
      ],
      "name": "RootNode"
    },
    {
      "children": [
        4
      ],
      "matrix": [
        150.0,
        0.0,
        0.0,
        0.0,
        0.0,
        -2.4438101908774712e-05,
        -149.999999999998,
        0.0,
        0.0,
        149.999999999998,
        -2.4438101908774712e-05,
        0.0,
        0.0,
        50.0,
        0.0,
        1.0
      ],
      "name": "Pioneer DJM A9"
    },
    {
      "mesh": 0,
      "name": "Pioneer DJM A9_Pioneer DJM A9 Texture_0"
    },
    {
      "children": [
        6
      ],
      "matrix": [
        99.37229919431483,
        -1.4645870494980783e-12,
        -6.475921219638193e-05,
        0.0,
        8.313781945040713e-12,
        -99.37229919433483,
        1.5004799725034922e-05,
        0.0,
        -6.47592121963814e-05,
        -1.5004799725037153e-05,
        -99.37229919431374,
        0.0,
        270.0,
        -2.3283064365386963e-08,
        0.0,
        1.0
      ],
      "name": "Pioneer CDJ 3000 NXS 2"
    },
    {
      "mesh": 1,
      "name": "Pioneer CDJ 3000 NXS 2_Textures_0"
    },
    {
      "children": [
        8
      ],
      "matrix": [
        99.37229919431483,
        -1.4645870494980783e-12,
        -6.475921219638193e-05,
        0.0,
        8.313781945040713e-12,
        -99.37229919433483,
        1.5004799725034922e-05,
        0.0,
        -6.47592121963814e-05,
        -1.5004799725037153e-05,
        -99.37229919431374,
        0.0,
        -277.0,
        -2.3283064365386963e-08,
        0.0,
        1.0
      ],
      "name": "Pioneer CDJ 3000 NXS 1"
    },
    {
      "mesh": 2,
      "name": "Pioneer CDJ 3000 NXS 1_Textures_0"
    },
    {
      "children": [
        10
      ],
      "matrix": [
        153.86676025387357,
        -2.2677473123107683e-12,
        -0.00010027231188206712,
        0.0,
        1.2872950547709041e-11,
        -153.86676025390454,
        2.323323441912896e-05,
        0.0,
        -0.0001002723118820663,
        -2.3233234419132417e-05,
        -153.8667602538719,
        0.0,
        0.0,
        0.0,
        0.0,
        1.0
      ],
      "name": "Cables"
    },
    {
      "mesh": 3,
      "name": "Cables_Pioneer DJM A9 Texture_0"
    }
  ],
  "samplers": [
    {
      "magFilter": 9729,
      "minFilter": 9987,
      "wrapS": 10497,
      "wrapT": 10497
    }
  ],
  "scene": 0,
  "scenes": [
    {
      "name": "Sketchfab_Scene",
      "nodes": [
        0
      ]
    }
  ],
  "textures": [
    {
      "sampler": 0,
      "source": 0
    },
    {
      "sampler": 0,
      "source": 1
    }
  ]
}
